<svg xmlns="http://www.w3.org/2000/svg" xmlns:xlink="http://www.w3.org/1999/xlink" viewBox="0 0 64 64"><defs><style>.cls-1{fill:url(#linear-gradient);}.cls-2{fill:#fe9661;}.cls-3{fill:url(#linear-gradient-2);}.cls-4{fill:#4795ea;}.cls-5{fill:url(#linear-gradient-3);}.cls-6{fill:url(#linear-gradient-4);}</style><linearGradient id="linear-gradient" x1="45" y1="53" x2="45" y2="30" gradientUnits="userSpaceOnUse"><stop offset="0" stop-color="#54a5ff"/><stop offset="1" stop-color="#8ad3fe"/></linearGradient><linearGradient id="linear-gradient-2" x1="19" y1="33" x2="19" y2="11" xlink:href="#linear-gradient"/><linearGradient id="linear-gradient-3" x1="32" y1="45" x2="40" y2="45" gradientUnits="userSpaceOnUse"><stop offset="0" stop-color="#d3e6f5"/><stop offset="1" stop-color="#f0f7fc"/></linearGradient><linearGradient id="linear-gradient-4" x1="48" y1="46" x2="53" y2="46" xlink:href="#linear-gradient-3"/></defs><title>payment method</title><g id="Payment_method" data-name="Payment method"><rect class="cls-1" x="28" y="30" width="34" height="23" rx="2"/><path class="cls-2" d="M20.92,40.38a1,1,0,0,0,0-.76,1,1,0,0,0-.21-.33l-2-2a1,1,0,0,0-1.42,1.42l.3.29H10a1,1,0,0,0,0,2h7.59l-.3.29a1,1,0,0,0,0,1.42,1,1,0,0,0,1.42,0l2-2A1,1,0,0,0,20.92,40.38Z"/><path class="cls-2" d="M20.92,48.38a1,1,0,0,0,0-.76,1,1,0,0,0-.21-.33l-2-2a1,1,0,0,0-1.42,1.42l.3.29H10a1,1,0,0,0,0,2h7.59l-.3.29a1,1,0,0,0,0,1.42,1,1,0,0,0,1.42,0l2-2A1,1,0,0,0,20.92,48.38Z"/><path class="cls-2" d="M55,22H47.41l.3-.29a1,1,0,0,0-1.42-1.42l-2,2a1,1,0,0,0-.21.33,1,1,0,0,0,0,.76,1,1,0,0,0,.21.33l2,2a1,1,0,0,0,1.42,0,1,1,0,0,0,0-1.42l-.3-.29H55a1,1,0,0,0,0-2Z"/><path class="cls-2" d="M55,14H47.41l.3-.29a1,1,0,0,0-1.42-1.42l-2,2a1,1,0,0,0-.21.33,1,1,0,0,0,0,.76,1,1,0,0,0,.21.33l2,2a1,1,0,0,0,1.42,0,1,1,0,0,0,0-1.42l-.3-.29H55a1,1,0,0,0,0-2Z"/><path class="cls-3" d="M28,33H3.79A1.91,1.91,0,0,1,2,31V13a1.91,1.91,0,0,1,1.79-2H34.21A1.91,1.91,0,0,1,36,13V30"/><path class="cls-4" d="M62,32v5H28V32a2,2,0,0,1,2-2H60A2,2,0,0,1,62,32Z"/><circle class="cls-4" cx="19" cy="22" r="4"/><circle class="cls-4" cx="30" cy="22" r="2"/><circle class="cls-4" cx="8" cy="22" r="2"/><rect class="cls-5" x="32" y="41" width="8" height="8" rx="2"/><path class="cls-6" d="M53,48.23A3,3,0,0,1,51,49a3,3,0,0,1,0-6,3,3,0,0,1,2,.77Z"/><circle class="cls-2" cx="55" cy="46" r="3"/></g></svg>