<?xml version="1.0" standalone="no"?>
<svg xmlns="http://www.w3.org/2000/svg" width="208.046875" height="139.0985986504825" viewBox="0 0 208.046875 139.0985986504825"><g fill="#6183ff" color="#6183ff" transform="translate(79.024 0) scale(0.5555556)"><svg width="90.0" height="90.0" x="0.0" y="0.0" viewBox="0 0 90 90"><g><path d="M89.8,44c0-0.3-0.2-0.5-0.5-0.5c-3.8,0.1-12.4,0.5-22.5,0.9V44c0-1.2-0.9-2.2-2-2.3l-0.1,0c0,0-13.9-1.6-15.5-1.9h-2.4   v-0.5c0-1.4-1-2.6-2.3-2.9l-11.9-3.5h-4.7l-4.8-2.2h-3.8l0.7,0.7h1.6l2.9,1.8l-7.8,4.2h26.5c1.3,0,2.3,1,2.4,2.3H13.4   c0,0,0,0-0.1,0c-0.1,0-0.3,0-0.4,0.1l0,0l-4.8,1.7l-2.2,2.5L64.4,43c0.7,0,1.2,0.5,1.2,1.2v0.3C52.8,44.9,40,45.4,39,45.4   c-0.4,0-0.7,0.2-0.9,0.4l-1.8,1.8c-0.1,0.1-0.3,0.2-0.5,0.2c-3.9,0-31.8,0-31.8,0l-1.1,0c-0.7,0-1.2,0.5-1.2,1.2v5.6l-1.3,0.6   l-0.3,2.7h73.7c0,0,4.2-4.6,8.1-7.7c2.7-2.1,7.6-5.7,7.7-5.7C89.7,44.3,89.8,44.2,89.8,44z M48.9,51.3c-0.7,0-1.3-0.6-1.3-1.3   c0-0.7,0.6-1.3,1.3-1.3c0.7,0,1.3,0.6,1.3,1.3C50.2,50.7,49.7,51.3,48.9,51.3z M57.6,51.2c-0.7,0-1.3-0.6-1.3-1.3   c0-0.7,0.6-1.3,1.3-1.3c0.7,0,1.3,0.6,1.3,1.3C58.9,50.6,58.3,51.2,57.6,51.2z M66.2,51.1c-0.7,0-1.3-0.6-1.3-1.3   c0-0.7,0.6-1.3,1.3-1.3c0.7,0,1.3,0.6,1.3,1.3C67.5,50.5,66.9,51.1,66.2,51.1z"></path></g></svg></g><path fill="#6183ff" fill-rule="nonzero" d="M17.56 17.93L17.56 17.93Q17.56 19.82 17.57 21.20Q17.58 22.58 17.61 23.58Q17.64 24.59 17.69 25.26Q17.73 25.94 17.80 26.43Q17.87 26.91 17.96 27.29Q18.05 27.66 18.16 28.01L18.16 28.01Q17.87 28.16 17.52 28.29Q17.17 28.42 16.79 28.51Q16.41 28.59 16.03 28.63Q15.64 28.67 15.31 28.67L15.31 28.67Q14.30 28.67 13.63 28.25Q12.97 27.83 12.97 26.72L12.97 26.72L12.97 18.55L4.08 3.85L0.64 5.35L0 3.96Q0.47 3.54 1.26 2.91Q2.05 2.29 2.96 1.72Q3.87 1.15 4.77 0.75Q5.66 0.35 6.33 0.35L6.33 0.35Q6.78 0.35 7.22 0.63Q7.66 0.90 8.09 1.56L8.09 1.56L16.37 15.20L16.45 15.20Q17.15 13.96 17.85 12.73Q18.55 11.50 19.12 10.26Q19.69 9.02 20.04 7.76Q20.39 6.50 20.39 5.23L20.39 5.23Q20.39 4.39 20.18 3.56Q19.96 2.73 19.61 1.88L19.61 1.88L22.68 0.57Q22.95 0.43 23.16 0.39Q23.38 0.35 23.59 0.35L23.59 0.35Q24.36 0.35 24.72 0.97Q25.08 1.58 25.08 2.60L25.08 2.60Q25.08 4.00 24.47 5.72Q23.87 7.44 22.83 9.39Q21.80 11.35 20.44 13.51Q19.08 15.66 17.56 17.93ZM48.03 27.68L45.10 20.88L33.18 20.88Q32.89 21.91 32.73 22.96Q32.58 24.00 32.58 25.04L32.58 25.04Q32.58 25.76 32.66 26.45Q32.73 27.13 32.91 27.75L32.91 27.75L29.86 28.59Q29.39 28.71 28.98 28.71L28.98 28.71Q27.79 28.71 27.79 27.56L27.79 27.56Q27.79 27.46 27.81 27.40Q27.83 27.34 27.83 27.25L27.83 27.25Q28.01 25.78 28.56 23.86Q29.12 21.93 29.92 19.79Q30.72 17.64 31.68 15.39Q32.64 13.14 33.61 11.03Q34.59 8.91 35.51 7.03Q36.43 5.16 37.14 3.75Q37.85 2.34 38.28 1.53Q38.71 0.72 38.71 0.72L38.71 0.72L40.70 0.72Q41.19 0.72 41.54 0.79Q41.89 0.86 42.16 1.04Q42.42 1.21 42.63 1.52Q42.83 1.84 43.03 2.32L43.03 2.32L52.03 25.20L55.47 23.85L56.11 25.23Q55.63 25.68 54.88 26.30Q54.14 26.91 53.27 27.47Q52.40 28.03 51.47 28.42Q50.55 28.81 49.71 28.81L49.71 28.81Q49.16 28.81 48.73 28.55Q48.30 28.30 48.03 27.68L48.03 27.68ZM39.39 5.20L39.18 5.20Q38.32 7.19 37.51 8.99Q36.70 10.80 35.99 12.42Q35.27 14.04 34.72 15.50Q34.16 16.95 33.83 18.20L33.83 18.20L44.10 18.20L39.39 5.20ZM64.08 26.72L64.08 3.48Q62.25 3.48 60.62 3.61Q58.98 3.75 57.65 3.93Q56.31 4.10 55.32 4.27Q54.34 4.43 53.81 4.51L53.81 4.51Q53.81 4.49 53.76 4.26Q53.71 4.02 53.63 3.65Q53.55 3.28 53.50 2.86Q53.44 2.44 53.44 2.13L53.44 2.13Q53.44 1.48 54.01 1.18Q54.59 0.88 55.59 0.77Q56.58 0.66 57.91 0.69Q59.24 0.72 60.76 0.72L60.76 0.72L66.48 0.72Q67.38 0.72 68.69 0.72Q70 0.72 71.61 0.66Q73.22 0.61 75.07 0.47Q76.91 0.33 78.85 0.08L78.85 0.08L78.85 0.08Q78.85 0.10 78.91 0.28Q78.96 0.47 79.02 0.77Q79.08 1.07 79.14 1.46Q79.20 1.84 79.20 2.25L79.20 2.25Q79.20 2.73 78.86 3.01Q78.52 3.28 77.95 3.41Q77.38 3.54 76.65 3.56Q75.92 3.59 75.12 3.59L75.12 3.59Q72.89 3.59 71.35 3.55Q69.80 3.52 68.69 3.48L68.69 3.48L68.69 22.17Q68.69 23.42 68.76 24.38Q68.83 25.33 68.93 26.04Q69.02 26.76 69.12 27.24Q69.22 27.71 69.28 28.01L69.28 28.01Q68.98 28.16 68.63 28.29Q68.28 28.42 67.90 28.51Q67.52 28.59 67.15 28.63Q66.78 28.67 66.45 28.67L66.45 28.67Q65.94 28.67 65.50 28.57Q65.06 28.48 64.75 28.25Q64.43 28.03 64.26 27.66Q64.08 27.29 64.08 26.72L64.08 26.72ZM80.98 14.61L80.98 14.61Q80.98 11.25 81.90 8.54Q82.83 5.84 84.65 3.95Q86.46 2.05 89.17 1.03Q91.88 0 95.45 0L95.45 0Q96.17 0 97.10 0.06Q98.03 0.12 98.99 0.23Q99.96 0.35 100.88 0.55Q101.80 0.74 102.51 1.03Q103.22 1.31 103.66 1.69Q104.10 2.07 104.10 2.56L104.10 2.56Q104.10 2.91 103.87 3.32L103.87 3.32L102.23 6.07Q101.58 5.72 100.70 5.13Q99.82 4.53 98.76 3.97Q97.70 3.42 96.47 3.01Q95.25 2.60 93.95 2.60L93.95 2.60Q92.40 2.60 91.22 3.10Q90.04 3.59 89.16 4.45Q88.28 5.31 87.69 6.46Q87.09 7.60 86.73 8.89Q86.37 10.18 86.21 11.53Q86.05 12.89 86.05 14.16L86.05 14.16Q86.05 15.72 86.34 17.22Q86.62 18.71 87.20 20.04Q87.77 21.37 88.63 22.47Q89.49 23.57 90.64 24.38Q91.80 25.18 93.24 25.63Q94.69 26.07 96.43 26.07L96.43 26.07Q97.89 26.07 99.32 25.82Q100.74 25.57 101.91 25.25L101.91 25.25Q103.26 24.90 104.49 24.43L104.49 24.43L105.29 25.96Q104.20 26.82 102.98 27.41Q101.76 28.01 100.44 28.38Q99.12 28.75 97.74 28.92Q96.37 29.08 94.98 29.08L94.98 29.08Q91.78 29.08 89.19 28.07Q86.60 27.05 84.78 25.17Q82.95 23.28 81.96 20.61Q80.98 17.93 80.98 14.61ZM134.28 2.29L134.28 26.07L137.97 26.07L137.97 27.75Q137.62 27.93 137.00 28.10Q136.39 28.26 135.64 28.39Q134.90 28.52 134.08 28.59Q133.26 28.67 132.48 28.67L132.48 28.67Q131.88 28.67 131.37 28.60Q130.86 28.54 130.49 28.33Q130.12 28.13 129.90 27.76Q129.69 27.40 129.69 26.80L129.69 26.80L129.69 15.23L116.19 15.23L116.19 22.17Q116.19 23.42 116.26 24.38Q116.33 25.33 116.44 26.04Q116.54 26.76 116.64 27.24Q116.74 27.71 116.80 28.01L116.80 28.01Q116.50 28.16 116.15 28.29Q115.80 28.42 115.42 28.51Q115.04 28.59 114.67 28.63Q114.30 28.67 113.96 28.67L113.96 28.67Q113.46 28.67 113.02 28.57Q112.58 28.48 112.27 28.25Q111.95 28.03 111.78 27.66Q111.60 27.29 111.60 26.72L111.60 26.72L111.60 2.79L107.83 2.79L107.83 1.25Q108.13 1.09 108.71 0.94Q109.30 0.78 110.07 0.64Q110.84 0.51 111.76 0.43Q112.68 0.35 113.63 0.35L113.63 0.35L114.51 0.35Q114.88 0.35 115.20 0.35Q115.51 0.35 115.73 0.44Q115.96 0.53 116.07 0.73Q116.19 0.94 116.19 1.37L116.19 1.37L116.19 12.48L129.69 12.48L129.69 6.68Q129.69 5.43 129.62 4.49Q129.55 3.55 129.44 2.87Q129.34 2.19 129.24 1.74Q129.14 1.29 129.08 1.00L129.08 1.00Q129.38 0.84 129.73 0.71Q130.08 0.59 130.46 0.51Q130.84 0.43 131.21 0.39Q131.58 0.35 131.91 0.35L131.91 0.35Q132.42 0.35 132.86 0.45Q133.30 0.55 133.61 0.76Q133.93 0.98 134.10 1.36Q134.28 1.74 134.28 2.29L134.28 2.29ZM151.80 11.64L151.80 11.64Q152.97 12.13 154.18 12.67Q155.39 13.20 156.51 13.82Q157.64 14.43 158.62 15.16Q159.61 15.88 160.34 16.76Q161.07 17.64 161.49 18.69Q161.91 19.75 161.91 21.04L161.91 21.04Q161.91 22.95 161.15 24.44Q160.39 25.94 159.10 26.96Q157.81 27.99 156.09 28.54Q154.38 29.08 152.48 29.08L152.48 29.08Q149.94 29.08 147.39 28.44Q144.84 27.79 142.60 26.29L142.60 26.29Q142.17 26.02 141.76 25.57Q141.35 25.12 141.35 24.61L141.35 24.61Q141.35 24.20 141.64 23.89L141.64 23.89L143.63 21.52Q144.57 22.27 145.70 23.14Q146.84 24.02 148.04 24.79Q149.24 25.55 150.43 26.05Q151.62 26.56 152.68 26.56L152.68 26.56Q153.55 26.56 154.39 26.27Q155.23 25.98 155.89 25.44Q156.54 24.90 156.94 24.13Q157.34 23.36 157.34 22.40L157.34 22.40Q157.34 21.17 156.70 20.16Q156.05 19.14 154.99 18.29Q153.93 17.44 152.57 16.74Q151.21 16.04 149.79 15.45L149.79 15.45Q147.42 14.45 145.96 13.45Q144.49 12.44 143.68 11.44Q142.87 10.43 142.59 9.43Q142.30 8.44 142.30 7.48L142.30 7.48Q142.30 6.04 142.79 4.92Q143.28 3.81 144.11 2.98Q144.94 2.15 146.05 1.58Q147.17 1.02 148.42 0.66Q149.67 0.31 150.99 0.16Q152.30 0 153.55 0L153.55 0Q154.10 0 154.84 0.05Q155.59 0.10 156.39 0.20Q157.19 0.29 157.97 0.46Q158.75 0.63 159.37 0.87Q159.98 1.11 160.36 1.45Q160.74 1.78 160.74 2.21L160.74 2.21Q160.74 2.54 160.51 2.97L160.51 2.97L158.95 5.64Q158.09 5.16 157.17 4.61Q156.25 4.06 155.25 3.62Q154.26 3.18 153.19 2.89Q152.13 2.60 150.96 2.60L150.96 2.60Q150.14 2.60 149.38 2.85Q148.61 3.11 148.05 3.62Q147.48 4.14 147.14 4.91Q146.80 5.68 146.80 6.72L146.80 6.72Q146.80 7.60 147.22 8.32Q147.64 9.04 148.33 9.65Q149.02 10.25 149.92 10.74Q150.82 11.23 151.80 11.64Z" transform="translate(0 65) scale(1.285)"></path><path fill="#6183ff" fill-rule="nonzero" d="M8.36 2.77L8.36 14.26Q8.75 14.39 9.28 14.47L9.28 14.47Q9.73 14.57 10.39 14.63Q11.05 14.69 11.93 14.69L11.93 14.69Q13.95 14.69 15.21 14.19Q16.48 13.69 17.22 12.87Q17.95 12.05 18.22 11.00Q18.50 9.94 18.50 8.81L18.50 8.81Q18.50 7.56 18.28 6.44Q18.07 5.31 17.35 4.45Q16.64 3.59 15.26 3.09Q13.89 2.58 11.56 2.58L11.56 2.58Q10.84 2.58 10.01 2.62Q9.18 2.66 8.36 2.77L8.36 2.77ZM8.36 17.01L8.36 21.82Q8.36 23.07 8.45 24.02Q8.54 24.98 8.66 25.69Q8.79 26.41 8.91 26.88Q9.02 27.36 9.08 27.66L9.08 27.66Q8.79 27.81 8.43 27.94Q8.07 28.07 7.67 28.15Q7.27 28.24 6.88 28.28Q6.48 28.32 6.13 28.32L6.13 28.32Q5.63 28.32 5.19 28.22Q4.75 28.13 4.43 27.90Q4.12 27.68 3.95 27.30Q3.77 26.93 3.77 26.37L3.77 26.37L3.77 2.97L0 3.20L0 1.48Q0.37 1.35 1.28 1.10Q2.19 0.86 3.69 0.62Q5.20 0.37 7.33 0.19Q9.47 0 12.32 0L12.32 0Q14.55 0 16.51 0.38Q18.48 0.76 19.96 1.75Q21.45 2.73 22.30 4.44Q23.16 6.15 23.16 8.81L23.16 8.81Q23.16 10.78 22.50 12.34Q21.84 13.91 20.59 14.99Q19.34 16.07 17.54 16.64Q15.74 17.21 13.50 17.21L13.50 17.21Q13.26 17.21 12.74 17.21Q12.23 17.21 11.54 17.19Q10.86 17.17 10.04 17.13Q9.22 17.09 8.36 17.01L8.36 17.01ZM34.39 2.77L34.39 14.26Q34.79 14.39 35.31 14.47L35.31 14.47Q35.76 14.57 36.43 14.63Q37.09 14.69 37.97 14.69L37.97 14.69Q39.98 14.69 41.25 14.19Q42.52 13.69 43.25 12.87Q43.98 12.05 44.26 11.00Q44.53 9.94 44.53 8.81L44.53 8.81Q44.53 7.56 44.32 6.44Q44.10 5.31 43.39 4.45Q42.68 3.59 41.30 3.09Q39.92 2.58 37.60 2.58L37.60 2.58Q36.88 2.58 36.04 2.62Q35.21 2.66 34.39 2.77L34.39 2.77ZM44.00 16.48L49.65 24.88L52.81 22.81L53.77 24.12Q53.32 24.75 52.66 25.48Q51.99 26.21 51.19 26.84Q50.39 27.46 49.52 27.89Q48.65 28.32 47.81 28.32L47.81 28.32Q47.25 28.32 46.67 28.04Q46.09 27.75 45.61 26.97L45.61 26.97L39.53 17.21Q39.30 17.21 38.78 17.21Q38.26 17.21 37.58 17.19Q36.89 17.17 36.07 17.13Q35.25 17.09 34.39 17.01L34.39 17.01L34.39 21.82Q34.39 23.07 34.48 24.02Q34.57 24.98 34.70 25.69Q34.82 26.41 34.94 26.88Q35.06 27.36 35.12 27.66L35.12 27.66Q34.82 27.81 34.46 27.94Q34.10 28.07 33.70 28.15Q33.30 28.24 32.91 28.28Q32.52 28.32 32.17 28.32L32.17 28.32Q31.66 28.32 31.22 28.22Q30.78 28.13 30.47 27.90Q30.16 27.68 29.98 27.30Q29.80 26.93 29.80 26.37L29.80 26.37L29.80 2.97L26.04 3.20L26.04 1.48Q26.29 1.41 26.66 1.26Q27.03 1.11 27.64 0.95Q28.24 0.78 29.13 0.62Q30.02 0.45 31.30 0.31Q32.58 0.18 34.32 0.09Q36.05 0 38.36 0L38.36 0Q40.59 0 42.55 0.38Q44.51 0.76 46.00 1.75Q47.48 2.73 48.34 4.44Q49.20 6.15 49.20 8.81L49.20 8.81Q49.20 11.68 47.87 13.63Q46.54 15.59 44.00 16.48L44.00 16.48ZM60.55 27.97L60.55 27.97Q59.63 27.89 59.33 27.51Q59.02 27.13 59.02 26.29L59.02 26.29L59.02 2.73L55.29 2.73L55.29 1.17Q55.88 0.98 57.16 0.77Q58.44 0.57 60.16 0.39Q61.88 0.21 63.93 0.11Q65.98 0 68.11 0L68.11 0Q69.02 0 70.13 0.02Q71.23 0.04 72.33 0.11Q73.44 0.18 74.47 0.29Q75.51 0.41 76.31 0.63Q77.11 0.84 77.59 1.16Q78.07 1.48 78.07 1.93L78.07 1.93Q78.07 2.13 77.82 2.64Q77.58 3.14 77.27 3.70Q76.95 4.26 76.66 4.74Q76.37 5.21 76.27 5.33L76.27 5.33Q76.27 5.31 75.75 4.96Q75.23 4.61 74.19 4.19Q73.14 3.77 71.58 3.42Q70.02 3.07 67.95 3.05L67.95 3.05L63.61 3.01L63.61 12.25L73.95 12.25L73.95 13.20Q73.95 14.24 73.51 14.62Q73.07 15 72.11 15L72.11 15L63.61 15L63.61 25.21L67.15 25.21Q69.77 25.21 72.40 24.86Q75.04 24.51 77.58 23.69L77.58 23.69Q77.58 23.71 77.64 23.90Q77.70 24.08 77.77 24.39Q77.85 24.71 77.92 25.11Q77.99 25.51 77.99 25.90L77.99 25.90Q77.99 26.82 77.52 27.29Q77.05 27.75 76.02 27.96Q74.98 28.16 73.29 28.18Q71.60 28.20 69.18 28.20L69.18 28.20Q67.85 28.20 66.51 28.18Q65.18 28.16 64.01 28.13Q62.85 28.11 61.94 28.06Q61.04 28.01 60.55 27.97ZM87.83 25.57L87.83 25.57Q87.54 26.15 87.08 26.67Q86.62 27.19 86.05 27.58Q85.49 27.97 84.83 28.19Q84.18 28.42 83.48 28.42L83.48 28.42Q82.97 28.42 82.61 28.16Q82.25 27.91 82.03 27.29L82.03 27.29L81.23 24.88Q81.45 24.79 81.87 24.65Q82.29 24.51 82.77 24.28Q83.26 24.04 83.76 23.67Q84.26 23.30 84.63 22.73L84.63 22.73Q84.98 22.19 85.33 20.85Q85.68 19.51 86.00 17.71Q86.31 15.90 86.59 13.79Q86.88 11.68 87.08 9.61Q87.29 7.54 87.41 5.66Q87.54 3.79 87.56 2.44L87.56 2.44L83.75 2.44L83.75 0.90Q84.00 0.76 84.59 0.61Q85.18 0.45 85.89 0.31Q86.60 0.18 87.35 0.09Q88.11 0 88.71 0L88.71 0Q89.51 0 90.09 0.03Q90.66 0.06 91.09 0.17Q91.52 0.27 91.83 0.49Q92.13 0.70 92.36 1.05L92.36 1.05Q93.09 2.73 93.83 4.58Q94.57 6.43 95.27 8.32Q95.98 10.21 100.47 23.46L100.47 23.46Q104.47 11.37 105.55 8.39Q106.62 5.41 107.42 3.41Q108.22 1.41 108.67 0.64L108.67 0.64Q108.65 0.63 108.97 0.52Q109.30 0.41 109.77 0.29Q110.23 0.18 110.77 0.09Q111.31 0 111.76 0L111.76 0Q112.23 0 112.52 0.09Q112.81 0.18 112.99 0.36Q113.16 0.55 113.26 0.83Q113.36 1.11 113.44 1.48L113.44 1.48L116.60 25.33L120.31 24.77L120.66 26.21Q120.25 26.62 119.49 27.02Q118.73 27.42 117.82 27.75Q116.91 28.09 115.95 28.29Q114.98 28.50 114.16 28.50L114.16 28.50Q113.83 28.50 113.49 28.43Q113.14 28.36 112.86 28.19Q112.58 28.03 112.37 27.74Q112.17 27.46 112.11 27.01L112.11 27.01L109.67 6.97Q107.87 12.15 105.67 18.06Q103.48 23.96 102.94 25.25Q102.40 26.54 102.10 27.15Q101.80 27.75 101.70 27.87Q101.60 27.99 101.60 27.97L101.60 27.97L99.47 27.97Q99.00 27.97 98.65 27.90Q98.30 27.83 98.03 27.66Q97.75 27.48 97.54 27.17Q97.32 26.86 97.15 26.37L97.15 26.37Q95.23 21.25 93.95 17.60Q92.66 13.95 91.88 11.60L91.88 11.60Q90.96 8.85 90.43 7.05L90.43 7.05Q90.33 8.71 90.22 10.48Q90.12 12.25 89.97 14.01Q89.82 15.78 89.63 17.48Q89.43 19.18 89.18 20.68Q88.93 22.19 88.59 23.45Q88.26 24.71 87.83 25.57ZM126.29 26.45L126.29 2.44L122.52 2.44L122.52 0.90Q122.81 0.74 123.40 0.59Q123.98 0.43 124.76 0.29Q125.53 0.16 126.45 0.08Q127.36 0 128.32 0L128.32 0Q129.10 0 129.60 0.03Q130.10 0.06 130.38 0.17Q130.66 0.27 130.77 0.47Q130.88 0.66 130.88 1.02L130.88 1.02L130.88 25.72L134.57 25.72L134.57 27.40Q134.22 27.58 133.61 27.74Q133.01 27.91 132.27 28.04Q131.52 28.16 130.69 28.24Q129.86 28.32 129.08 28.32L129.08 28.32Q128.48 28.32 127.97 28.25Q127.46 28.18 127.09 27.98Q126.72 27.77 126.50 27.41Q126.29 27.05 126.29 26.45L126.29 26.45ZM163.79 1.93L163.79 17.32Q163.79 20.14 162.90 22.27Q162.01 24.39 160.49 25.83Q158.96 27.27 156.94 28.00Q154.92 28.73 152.68 28.73L152.68 28.73Q149.84 28.73 147.62 28.00Q145.39 27.27 143.86 25.82Q142.32 24.38 141.52 22.24Q140.72 20.10 140.72 17.29L140.72 17.29L140.72 2.44L136.91 2.44L136.91 0.90Q137.21 0.78 137.79 0.63Q138.38 0.47 139.15 0.33Q139.92 0.20 140.84 0.10Q141.76 0 142.71 0L142.71 0Q143.52 0 144.01 0.02Q144.51 0.04 144.79 0.13Q145.08 0.21 145.18 0.43Q145.27 0.64 145.27 1.02L145.27 1.02L145.27 17.36Q145.27 18.38 145.43 19.43Q145.59 20.49 145.95 21.47Q146.31 22.46 146.88 23.34Q147.44 24.22 148.26 24.87Q149.08 25.53 150.18 25.91Q151.27 26.29 152.68 26.29L152.68 26.29Q154.12 26.29 155.23 25.91Q156.35 25.53 157.18 24.87Q158.01 24.22 158.57 23.34Q159.14 22.46 159.48 21.46Q159.82 20.45 159.97 19.38Q160.12 18.32 160.12 17.29L160.12 17.29L160.12 6.21Q160.12 5 160.05 4.06Q159.98 3.13 159.88 2.44Q159.79 1.76 159.69 1.30Q159.59 0.84 159.55 0.57L159.55 0.57Q159.75 0.43 160.03 0.32Q160.31 0.21 160.62 0.14Q160.92 0.06 161.23 0.03Q161.54 0 161.80 0L161.80 0Q162.19 0 162.55 0.09Q162.91 0.18 163.18 0.40Q163.46 0.63 163.62 1.00Q163.79 1.37 163.79 1.93L163.79 1.93ZM175.21 25.57L175.21 25.57Q174.92 26.15 174.46 26.67Q174.00 27.19 173.44 27.58Q172.87 27.97 172.22 28.19Q171.56 28.42 170.86 28.42L170.86 28.42Q170.35 28.42 169.99 28.16Q169.63 27.91 169.41 27.29L169.41 27.29L168.61 24.88Q168.83 24.79 169.25 24.65Q169.67 24.51 170.16 24.28Q170.64 24.04 171.14 23.67Q171.64 23.30 172.01 22.73L172.01 22.73Q172.36 22.19 172.71 20.85Q173.07 19.51 173.38 17.71Q173.69 15.90 173.97 13.79Q174.26 11.68 174.46 9.61Q174.67 7.54 174.79 5.66Q174.92 3.79 174.94 2.44L174.94 2.44L171.13 2.44L171.13 0.90Q171.39 0.76 171.97 0.61Q172.56 0.45 173.27 0.31Q173.98 0.18 174.74 0.09Q175.49 0 176.09 0L176.09 0Q176.89 0 177.47 0.03Q178.05 0.06 178.48 0.17Q178.91 0.27 179.21 0.49Q179.51 0.70 179.75 1.05L179.75 1.05Q180.47 2.73 181.21 4.58Q181.95 6.43 182.66 8.32Q183.36 10.21 187.85 23.46L187.85 23.46Q191.86 11.37 192.93 8.39Q194.00 5.41 194.80 3.41Q195.61 1.41 196.05 0.64L196.05 0.64Q196.04 0.63 196.36 0.52Q196.68 0.41 197.15 0.29Q197.62 0.18 198.15 0.09Q198.69 0 199.14 0L199.14 0Q199.61 0 199.90 0.09Q200.20 0.18 200.37 0.36Q200.55 0.55 200.64 0.83Q200.74 1.11 200.82 1.48L200.82 1.48L203.98 25.33L207.70 24.77L208.05 26.21Q207.64 26.62 206.88 27.02Q206.11 27.42 205.21 27.75Q204.30 28.09 203.33 28.29Q202.36 28.50 201.54 28.50L201.54 28.50Q201.21 28.50 200.87 28.43Q200.53 28.36 200.24 28.19Q199.96 28.03 199.76 27.74Q199.55 27.46 199.49 27.01L199.49 27.01L197.05 6.97Q195.25 12.15 193.06 18.06Q190.86 23.96 190.32 25.25Q189.79 26.54 189.48 27.15Q189.18 27.75 189.08 27.87Q188.98 27.99 188.98 27.97L188.98 27.97L186.86 27.97Q186.39 27.97 186.04 27.90Q185.68 27.83 185.41 27.66Q185.14 27.48 184.92 27.17Q184.71 26.86 184.53 26.37L184.53 26.37Q182.62 21.25 181.33 17.60Q180.04 13.95 179.26 11.60L179.26 11.60Q178.34 8.85 177.81 7.05L177.81 7.05Q177.71 8.71 177.61 10.48Q177.50 12.25 177.35 14.01Q177.21 15.78 177.01 17.48Q176.82 19.18 176.56 20.68Q176.31 22.19 175.98 23.45Q175.64 24.71 175.21 25.57Z" transform="translate(0 110.369) scale(1)"></path></svg>